<?xml version="1.0" encoding="utf-8" standalone="no"?>
<!DOCTYPE svg PUBLIC "-//W3C//DTD SVG 1.1//EN"
  "http://www.w3.org/Graphics/SVG/1.1/DTD/svg11.dtd">
<svg xmlns:xlink="http://www.w3.org/1999/xlink" width="864pt" height="216pt" viewBox="0 0 864 216" xmlns="http://www.w3.org/2000/svg" version="1.1">
 <metadata>
  <rdf:RDF xmlns:dc="http://purl.org/dc/elements/1.1/" xmlns:cc="http://creativecommons.org/ns#" xmlns:rdf="http://www.w3.org/1999/02/22-rdf-syntax-ns#">
   <cc:Work>
    <dc:type rdf:resource="http://purl.org/dc/dcmitype/StillImage"/>
    <dc:date>2025-05-07T04:52:49.570263</dc:date>
    <dc:format>image/svg+xml</dc:format>
    <dc:creator>
     <cc:Agent>
      <dc:title>Matplotlib v3.10.0, https://matplotlib.org/</dc:title>
     </cc:Agent>
    </dc:creator>
   </cc:Work>
  </rdf:RDF>
 </metadata>
 <defs>
  <style type="text/css">*{stroke-linejoin: round; stroke-linecap: butt}</style>
 </defs>
 <g id="figure_1">
  <g id="patch_1">
   <path d="M 0 216 
L 864 216 
L 864 0 
L 0 0 
z
" style="fill: #ffffff"/>
  </g>
  <g id="axes_1">
   <g id="patch_2">
    <path d="M 62.08625 163.96 
L 282.96 163.96 
L 282.96 33.36 
L 62.08625 33.36 
z
" style="fill: #ffffff"/>
   </g>
   <g id="patch_3">
    <path d="M 66.503725 163.96 
L 101.843525 163.96 
L 101.843525 156.775728 
L 66.503725 156.775728 
z
" clip-path="url(#peca955c420)" style="fill: #aeccdb"/>
   </g>
   <g id="patch_4">
    <path d="M 110.678475 163.96 
L 146.018275 163.96 
L 146.018275 138.171099 
L 110.678475 138.171099 
z
" clip-path="url(#peca955c420)" style="fill: #3274a1"/>
   </g>
   <g id="patch_5">
    <path d="M 154.853225 163.96 
L 190.193025 163.96 
L 190.193025 87.88388 
L 154.853225 87.88388 
z
" clip-path="url(#peca955c420)" style="fill: #b3d495"/>
   </g>
   <g id="patch_6">
    <path d="M 199.027975 163.96 
L 234.367775 163.96 
L 234.367775 46.642912 
L 199.027975 46.642912 
z
" clip-path="url(#peca955c420)" style="fill: #40923a"/>
   </g>
   <g id="patch_7">
    <path d="M 243.202725 163.96 
L 278.542525 163.96 
L 278.542525 39.683277 
L 243.202725 39.683277 
z
" clip-path="url(#peca955c420)" style="fill: #efa6a5"/>
   </g>
   <g id="patch_8">
    <path d="M 84.173625 163.96 
L 84.173625 163.96 
L 84.173625 163.96 
L 84.173625 163.96 
z
" clip-path="url(#peca955c420)" style="fill: #aeccdb"/>
   </g>
   <g id="patch_9">
    <path d="M 84.173625 163.96 
L 84.173625 163.96 
L 84.173625 163.96 
L 84.173625 163.96 
z
" clip-path="url(#peca955c420)" style="fill: #3274a1"/>
   </g>
   <g id="patch_10">
    <path d="M 84.173625 163.96 
L 84.173625 163.96 
L 84.173625 163.96 
L 84.173625 163.96 
z
" clip-path="url(#peca955c420)" style="fill: #b3d495"/>
   </g>
   <g id="patch_11">
    <path d="M 84.173625 163.96 
L 84.173625 163.96 
L 84.173625 163.96 
L 84.173625 163.96 
z
" clip-path="url(#peca955c420)" style="fill: #40923a"/>
   </g>
   <g id="patch_12">
    <path d="M 84.173625 163.96 
L 84.173625 163.96 
L 84.173625 163.96 
L 84.173625 163.96 
z
" clip-path="url(#peca955c420)" style="fill: #efa6a5"/>
   </g>
   <g id="matplotlib.axis_1">
    <g id="xtick_1">
     <g id="line2d_1">
      <defs>
       <path id="m35ee814b0c" d="M 0 0 
L 0 3.5 
" style="stroke: #000000; stroke-width: 0.8"/>
      </defs>
      <g>
       <use xlink:href="#m35ee814b0c" x="84.173625" y="163.96" style="stroke: #000000; stroke-width: 0.8"/>
      </g>
     </g>
     <g id="text_1">
      <!-- 1 -->
      <g transform="translate(79.719875 181.597812) scale(0.14 -0.14)">
       <defs>
        <path id="DejaVuSerif-31" d="M 909 0 
L 909 331 
L 1722 331 
L 1722 4213 
L 781 3603 
L 781 4013 
L 1919 4750 
L 2350 4750 
L 2350 331 
L 3163 331 
L 3163 0 
L 909 0 
z
" transform="scale(0.015625)"/>
       </defs>
       <use xlink:href="#DejaVuSerif-31"/>
      </g>
     </g>
    </g>
    <g id="xtick_2">
     <g id="line2d_2">
      <g>
       <use xlink:href="#m35ee814b0c" x="128.348375" y="163.96" style="stroke: #000000; stroke-width: 0.8"/>
      </g>
     </g>
     <g id="text_2">
      <!-- 2 -->
      <g transform="translate(123.894625 181.597812) scale(0.14 -0.14)">
       <defs>
        <path id="DejaVuSerif-32" d="M 819 3553 
L 469 3553 
L 469 4384 
Q 803 4563 1142 4656 
Q 1481 4750 1806 4750 
Q 2534 4750 2956 4397 
Q 3378 4044 3378 3438 
Q 3378 2753 2422 1800 
Q 2347 1728 2309 1691 
L 1131 513 
L 3078 513 
L 3078 1088 
L 3444 1088 
L 3444 0 
L 434 0 
L 434 341 
L 1850 1753 
Q 2319 2222 2519 2614 
Q 2719 3006 2719 3438 
Q 2719 3909 2473 4175 
Q 2228 4441 1797 4441 
Q 1350 4441 1106 4219 
Q 863 3997 819 3553 
z
" transform="scale(0.015625)"/>
       </defs>
       <use xlink:href="#DejaVuSerif-32"/>
      </g>
     </g>
    </g>
    <g id="xtick_3">
     <g id="line2d_3">
      <g>
       <use xlink:href="#m35ee814b0c" x="172.523125" y="163.96" style="stroke: #000000; stroke-width: 0.8"/>
      </g>
     </g>
     <g id="text_3">
      <!-- 3 -->
      <g transform="translate(168.069375 181.597812) scale(0.14 -0.14)">
       <defs>
        <path id="DejaVuSerif-33" d="M 622 4469 
Q 988 4606 1323 4678 
Q 1659 4750 1953 4750 
Q 2638 4750 3022 4454 
Q 3406 4159 3406 3634 
Q 3406 3213 3140 2930 
Q 2875 2647 2388 2547 
Q 2963 2466 3280 2130 
Q 3597 1794 3597 1259 
Q 3597 606 3158 257 
Q 2719 -91 1894 -91 
Q 1528 -91 1179 -12 
Q 831 66 488 225 
L 488 1131 
L 838 1131 
Q 869 681 1141 450 
Q 1413 219 1906 219 
Q 2384 219 2661 495 
Q 2938 772 2938 1253 
Q 2938 1803 2653 2086 
Q 2369 2369 1819 2369 
L 1522 2369 
L 1522 2688 
L 1678 2688 
Q 2225 2688 2498 2914 
Q 2772 3141 2772 3597 
Q 2772 4006 2547 4223 
Q 2322 4441 1900 4441 
Q 1478 4441 1245 4241 
Q 1013 4041 972 3647 
L 622 3647 
L 622 4469 
z
" transform="scale(0.015625)"/>
       </defs>
       <use xlink:href="#DejaVuSerif-33"/>
      </g>
     </g>
    </g>
    <g id="xtick_4">
     <g id="line2d_4">
      <g>
       <use xlink:href="#m35ee814b0c" x="216.697875" y="163.96" style="stroke: #000000; stroke-width: 0.8"/>
      </g>
     </g>
     <g id="text_4">
      <!-- 4 -->
      <g transform="translate(212.244125 181.597812) scale(0.14 -0.14)">
       <defs>
        <path id="DejaVuSerif-34" d="M 2234 1581 
L 2234 4063 
L 641 1581 
L 2234 1581 
z
M 3609 0 
L 1484 0 
L 1484 331 
L 2234 331 
L 2234 1247 
L 197 1247 
L 197 1588 
L 2241 4750 
L 2859 4750 
L 2859 1581 
L 3750 1581 
L 3750 1247 
L 2859 1247 
L 2859 331 
L 3609 331 
L 3609 0 
z
" transform="scale(0.015625)"/>
       </defs>
       <use xlink:href="#DejaVuSerif-34"/>
      </g>
     </g>
    </g>
    <g id="xtick_5">
     <g id="line2d_5">
      <g>
       <use xlink:href="#m35ee814b0c" x="260.872625" y="163.96" style="stroke: #000000; stroke-width: 0.8"/>
      </g>
     </g>
     <g id="text_5">
      <!-- 5 -->
      <g transform="translate(256.418875 181.597812) scale(0.14 -0.14)">
       <defs>
        <path id="DejaVuSerif-35" d="M 3219 4666 
L 3219 4153 
L 1081 4153 
L 1081 2816 
Q 1244 2928 1461 2984 
Q 1678 3041 1947 3041 
Q 2703 3041 3140 2622 
Q 3578 2203 3578 1478 
Q 3578 738 3136 323 
Q 2694 -91 1894 -91 
Q 1572 -91 1234 -12 
Q 897 66 544 225 
L 544 1131 
L 897 1131 
Q 925 688 1179 453 
Q 1434 219 1894 219 
Q 2388 219 2653 544 
Q 2919 869 2919 1478 
Q 2919 2084 2655 2407 
Q 2391 2731 1894 2731 
Q 1613 2731 1398 2631 
Q 1184 2531 1019 2322 
L 750 2322 
L 750 4666 
L 3219 4666 
z
" transform="scale(0.015625)"/>
       </defs>
       <use xlink:href="#DejaVuSerif-35"/>
      </g>
     </g>
    </g>
    <g id="text_6">
     <!-- stars -->
     <g transform="translate(155.006719 199.147187) scale(0.14 -0.14)">
      <defs>
       <path id="DejaVuSerif-73" d="M 359 184 
L 359 959 
L 691 959 
Q 703 588 923 403 
Q 1144 219 1575 219 
Q 1963 219 2166 364 
Q 2369 509 2369 788 
Q 2369 1006 2220 1140 
Q 2072 1275 1594 1428 
L 1178 1569 
Q 750 1706 558 1912 
Q 366 2119 366 2438 
Q 366 2894 700 3153 
Q 1034 3413 1625 3413 
Q 1888 3413 2178 3344 
Q 2469 3275 2778 3144 
L 2778 2419 
L 2447 2419 
Q 2434 2741 2221 2922 
Q 2009 3103 1644 3103 
Q 1281 3103 1095 2975 
Q 909 2847 909 2591 
Q 909 2381 1050 2254 
Q 1191 2128 1613 1997 
L 2069 1856 
Q 2541 1709 2748 1489 
Q 2956 1269 2956 922 
Q 2956 450 2595 179 
Q 2234 -91 1600 -91 
Q 1278 -91 972 -22 
Q 666 47 359 184 
z
" transform="scale(0.015625)"/>
       <path id="DejaVuSerif-74" d="M 691 2988 
L 184 2988 
L 184 3322 
L 691 3322 
L 691 4353 
L 1269 4353 
L 1269 3322 
L 2350 3322 
L 2350 2988 
L 1269 2988 
L 1269 878 
Q 1269 456 1350 337 
Q 1431 219 1650 219 
Q 1875 219 1978 351 
Q 2081 484 2088 781 
L 2522 781 
Q 2497 328 2275 118 
Q 2053 -91 1600 -91 
Q 1103 -91 897 129 
Q 691 350 691 878 
L 691 2988 
z
" transform="scale(0.015625)"/>
       <path id="DejaVuSerif-61" d="M 2547 1044 
L 2547 1747 
L 1806 1747 
Q 1378 1747 1168 1562 
Q 959 1378 959 997 
Q 959 650 1171 447 
Q 1384 244 1747 244 
Q 2106 244 2326 466 
Q 2547 688 2547 1044 
z
M 3122 2075 
L 3122 331 
L 3634 331 
L 3634 0 
L 2547 0 
L 2547 359 
Q 2356 128 2106 18 
Q 1856 -91 1522 -91 
Q 969 -91 644 203 
Q 319 497 319 997 
Q 319 1513 691 1797 
Q 1063 2081 1741 2081 
L 2547 2081 
L 2547 2309 
Q 2547 2688 2317 2895 
Q 2088 3103 1672 3103 
Q 1328 3103 1125 2947 
Q 922 2791 872 2484 
L 575 2484 
L 575 3156 
Q 875 3284 1158 3348 
Q 1441 3413 1709 3413 
Q 2400 3413 2761 3070 
Q 3122 2728 3122 2075 
z
" transform="scale(0.015625)"/>
       <path id="DejaVuSerif-72" d="M 3059 3328 
L 3059 2497 
L 2728 2497 
Q 2713 2744 2591 2866 
Q 2469 2988 2234 2988 
Q 1809 2988 1582 2694 
Q 1356 2400 1356 1850 
L 1356 331 
L 2022 331 
L 2022 0 
L 263 0 
L 263 331 
L 781 331 
L 781 2994 
L 231 2994 
L 231 3322 
L 1356 3322 
L 1356 2731 
Q 1525 3078 1790 3245 
Q 2056 3413 2438 3413 
Q 2578 3413 2733 3391 
Q 2888 3369 3059 3328 
z
" transform="scale(0.015625)"/>
      </defs>
      <use xlink:href="#DejaVuSerif-73"/>
      <use xlink:href="#DejaVuSerif-74" transform="translate(51.318359 0)"/>
      <use xlink:href="#DejaVuSerif-61" transform="translate(91.503906 0)"/>
      <use xlink:href="#DejaVuSerif-72" transform="translate(151.123047 0)"/>
      <use xlink:href="#DejaVuSerif-73" transform="translate(198.925781 0)"/>
     </g>
    </g>
   </g>
   <g id="matplotlib.axis_2">
    <g id="ytick_1">
     <g id="line2d_6">
      <defs>
       <path id="m55065a93b3" d="M 0 0 
L -3.5 0 
" style="stroke: #000000; stroke-width: 0.8"/>
      </defs>
      <g>
       <use xlink:href="#m55065a93b3" x="62.08625" y="163.96" style="stroke: #000000; stroke-width: 0.8"/>
      </g>
     </g>
     <g id="text_7">
      <!-- 0.0 -->
      <g transform="translate(32.821875 169.278906) scale(0.14 -0.14)">
       <defs>
        <path id="DejaVuSerif-30" d="M 2034 219 
Q 2513 219 2750 744 
Q 2988 1269 2988 2328 
Q 2988 3391 2750 3916 
Q 2513 4441 2034 4441 
Q 1556 4441 1318 3916 
Q 1081 3391 1081 2328 
Q 1081 1269 1318 744 
Q 1556 219 2034 219 
z
M 2034 -91 
Q 1275 -91 848 546 
Q 422 1184 422 2328 
Q 422 3475 848 4112 
Q 1275 4750 2034 4750 
Q 2797 4750 3222 4112 
Q 3647 3475 3647 2328 
Q 3647 1184 3222 546 
Q 2797 -91 2034 -91 
z
" transform="scale(0.015625)"/>
        <path id="DejaVuSerif-2e" d="M 603 325 
Q 603 500 722 622 
Q 841 744 1019 744 
Q 1191 744 1312 622 
Q 1434 500 1434 325 
Q 1434 153 1312 31 
Q 1191 -91 1019 -91 
Q 841 -91 722 29 
Q 603 150 603 325 
z
" transform="scale(0.015625)"/>
       </defs>
       <use xlink:href="#DejaVuSerif-30"/>
       <use xlink:href="#DejaVuSerif-2e" transform="translate(63.623047 0)"/>
       <use xlink:href="#DejaVuSerif-30" transform="translate(95.410156 0)"/>
      </g>
     </g>
    </g>
    <g id="ytick_2">
     <g id="line2d_7">
      <g>
       <use xlink:href="#m55065a93b3" x="62.08625" y="99.068617" style="stroke: #000000; stroke-width: 0.8"/>
      </g>
     </g>
     <g id="text_8">
      <!-- 0.5 -->
      <g transform="translate(32.821875 104.387523) scale(0.14 -0.14)">
       <use xlink:href="#DejaVuSerif-30"/>
       <use xlink:href="#DejaVuSerif-2e" transform="translate(63.623047 0)"/>
       <use xlink:href="#DejaVuSerif-35" transform="translate(95.410156 0)"/>
      </g>
     </g>
    </g>
    <g id="ytick_3">
     <g id="line2d_8">
      <g>
       <use xlink:href="#m55065a93b3" x="62.08625" y="34.177233" style="stroke: #000000; stroke-width: 0.8"/>
      </g>
     </g>
     <g id="text_9">
      <!-- 1.0 -->
      <g transform="translate(32.821875 39.496139) scale(0.14 -0.14)">
       <use xlink:href="#DejaVuSerif-31"/>
       <use xlink:href="#DejaVuSerif-2e" transform="translate(63.623047 0)"/>
       <use xlink:href="#DejaVuSerif-30" transform="translate(95.410156 0)"/>
      </g>
     </g>
    </g>
    <g id="text_10">
     <!-- pos_prob -->
     <g transform="translate(25.520937 130.969375) rotate(-90) scale(0.14 -0.14)">
      <defs>
       <path id="DejaVuSerif-70" d="M 1313 1825 
L 1313 1497 
Q 1313 897 1542 583 
Q 1772 269 2209 269 
Q 2650 269 2876 622 
Q 3103 975 3103 1663 
Q 3103 2353 2876 2703 
Q 2650 3053 2209 3053 
Q 1772 3053 1542 2737 
Q 1313 2422 1313 1825 
z
M 738 2988 
L 184 2988 
L 184 3322 
L 1313 3322 
L 1313 2803 
Q 1481 3116 1742 3264 
Q 2003 3413 2388 3413 
Q 3000 3413 3387 2928 
Q 3775 2444 3775 1663 
Q 3775 881 3387 395 
Q 3000 -91 2388 -91 
Q 2003 -91 1742 57 
Q 1481 206 1313 519 
L 1313 -997 
L 1856 -997 
L 1856 -1331 
L 184 -1331 
L 184 -997 
L 738 -997 
L 738 2988 
z
" transform="scale(0.015625)"/>
       <path id="DejaVuSerif-6f" d="M 1925 219 
Q 2388 219 2623 584 
Q 2859 950 2859 1663 
Q 2859 2375 2623 2739 
Q 2388 3103 1925 3103 
Q 1463 3103 1227 2739 
Q 991 2375 991 1663 
Q 991 950 1228 584 
Q 1466 219 1925 219 
z
M 1925 -91 
Q 1200 -91 759 389 
Q 319 869 319 1663 
Q 319 2456 758 2934 
Q 1197 3413 1925 3413 
Q 2653 3413 3092 2934 
Q 3531 2456 3531 1663 
Q 3531 869 3092 389 
Q 2653 -91 1925 -91 
z
" transform="scale(0.015625)"/>
       <path id="DejaVuSerif-5f" d="M 3200 -1259 
L 3200 -1509 
L 0 -1509 
L 0 -1259 
L 3200 -1259 
z
" transform="scale(0.015625)"/>
       <path id="DejaVuSerif-62" d="M 738 331 
L 738 4531 
L 184 4531 
L 184 4863 
L 1313 4863 
L 1313 2803 
Q 1481 3116 1742 3264 
Q 2003 3413 2388 3413 
Q 3000 3413 3387 2928 
Q 3775 2444 3775 1663 
Q 3775 881 3387 395 
Q 3000 -91 2388 -91 
Q 2003 -91 1742 57 
Q 1481 206 1313 519 
L 1313 0 
L 184 0 
L 184 331 
L 738 331 
z
M 1313 1497 
Q 1313 897 1542 583 
Q 1772 269 2209 269 
Q 2650 269 2876 622 
Q 3103 975 3103 1663 
Q 3103 2353 2876 2703 
Q 2650 3053 2209 3053 
Q 1772 3053 1542 2737 
Q 1313 2422 1313 1825 
L 1313 1497 
z
" transform="scale(0.015625)"/>
      </defs>
      <use xlink:href="#DejaVuSerif-70"/>
      <use xlink:href="#DejaVuSerif-6f" transform="translate(64.013672 0)"/>
      <use xlink:href="#DejaVuSerif-73" transform="translate(124.21875 0)"/>
      <use xlink:href="#DejaVuSerif-5f" transform="translate(175.537109 0)"/>
      <use xlink:href="#DejaVuSerif-70" transform="translate(225.537109 0)"/>
      <use xlink:href="#DejaVuSerif-72" transform="translate(289.550781 0)"/>
      <use xlink:href="#DejaVuSerif-6f" transform="translate(337.353516 0)"/>
      <use xlink:href="#DejaVuSerif-62" transform="translate(397.558594 0)"/>
     </g>
    </g>
   </g>
   <g id="line2d_9">
    <path d="M 84.173625 157.04129 
L 84.173625 156.484613 
" clip-path="url(#peca955c420)" style="fill: none; stroke: #424242; stroke-width: 2.25; stroke-linecap: square"/>
   </g>
   <g id="line2d_10">
    <path d="M 128.348375 138.742772 
L 128.348375 137.570862 
" clip-path="url(#peca955c420)" style="fill: none; stroke: #424242; stroke-width: 2.25; stroke-linecap: square"/>
   </g>
   <g id="line2d_11">
    <path d="M 172.523125 88.507083 
L 172.523125 87.258548 
" clip-path="url(#peca955c420)" style="fill: none; stroke: #424242; stroke-width: 2.25; stroke-linecap: square"/>
   </g>
   <g id="line2d_12">
    <path d="M 216.697875 46.859285 
L 216.697875 46.437142 
" clip-path="url(#peca955c420)" style="fill: none; stroke: #424242; stroke-width: 2.25; stroke-linecap: square"/>
   </g>
   <g id="line2d_13">
    <path d="M 260.872625 39.783693 
L 260.872625 39.579048 
" clip-path="url(#peca955c420)" style="fill: none; stroke: #424242; stroke-width: 2.25; stroke-linecap: square"/>
   </g>
   <g id="patch_13">
    <path d="M 62.08625 163.96 
L 62.08625 33.36 
" style="fill: none; stroke: #000000; stroke-width: 0.8; stroke-linejoin: miter; stroke-linecap: square"/>
   </g>
   <g id="patch_14">
    <path d="M 282.96 163.96 
L 282.96 33.36 
" style="fill: none; stroke: #000000; stroke-width: 0.8; stroke-linejoin: miter; stroke-linecap: square"/>
   </g>
   <g id="patch_15">
    <path d="M 62.08625 163.96 
L 282.96 163.96 
" style="fill: none; stroke: #000000; stroke-width: 0.8; stroke-linejoin: miter; stroke-linecap: square"/>
   </g>
   <g id="patch_16">
    <path d="M 62.08625 33.36 
L 282.96 33.36 
" style="fill: none; stroke: #000000; stroke-width: 0.8; stroke-linejoin: miter; stroke-linecap: square"/>
   </g>
   <g id="text_11">
    <!-- Positive -->
    <g transform="translate(139.373312 27.36) scale(0.168 -0.168)">
     <defs>
      <path id="DejaVuSerif-50" d="M 1581 2375 
L 2406 2375 
Q 2872 2375 3115 2626 
Q 3359 2878 3359 3353 
Q 3359 3831 3115 4081 
Q 2872 4331 2406 4331 
L 1581 4331 
L 1581 2375 
z
M 353 0 
L 353 331 
L 947 331 
L 947 4331 
L 353 4331 
L 353 4666 
L 2559 4666 
Q 3259 4666 3668 4311 
Q 4078 3956 4078 3353 
Q 4078 2753 3668 2397 
Q 3259 2041 2559 2041 
L 1581 2041 
L 1581 331 
L 2303 331 
L 2303 0 
L 353 0 
z
" transform="scale(0.015625)"/>
      <path id="DejaVuSerif-69" d="M 622 4353 
Q 622 4497 726 4603 
Q 831 4709 978 4709 
Q 1122 4709 1226 4603 
Q 1331 4497 1331 4353 
Q 1331 4206 1228 4103 
Q 1125 4000 978 4000 
Q 831 4000 726 4103 
Q 622 4206 622 4353 
z
M 1356 331 
L 1900 331 
L 1900 0 
L 231 0 
L 231 331 
L 781 331 
L 781 2988 
L 231 2988 
L 231 3322 
L 1356 3322 
L 1356 331 
z
" transform="scale(0.015625)"/>
      <path id="DejaVuSerif-76" d="M 1581 0 
L 359 2988 
L -19 2988 
L -19 3322 
L 1509 3322 
L 1509 2988 
L 978 2988 
L 1913 703 
L 2847 2988 
L 2350 2988 
L 2350 3322 
L 3597 3322 
L 3597 2988 
L 3225 2988 
L 2003 0 
L 1581 0 
z
" transform="scale(0.015625)"/>
      <path id="DejaVuSerif-65" d="M 3469 1600 
L 991 1600 
L 991 1575 
Q 991 903 1244 561 
Q 1497 219 1991 219 
Q 2369 219 2611 417 
Q 2853 616 2950 1006 
L 3413 1006 
Q 3275 459 2904 184 
Q 2534 -91 1931 -91 
Q 1203 -91 761 389 
Q 319 869 319 1663 
Q 319 2450 753 2931 
Q 1188 3413 1894 3413 
Q 2647 3413 3050 2948 
Q 3453 2484 3469 1600 
z
M 2791 1931 
Q 2772 2513 2545 2808 
Q 2319 3103 1894 3103 
Q 1497 3103 1269 2806 
Q 1041 2509 991 1931 
L 2791 1931 
z
" transform="scale(0.015625)"/>
     </defs>
     <use xlink:href="#DejaVuSerif-50"/>
     <use xlink:href="#DejaVuSerif-6f" transform="translate(63.285156 0)"/>
     <use xlink:href="#DejaVuSerif-73" transform="translate(123.490234 0)"/>
     <use xlink:href="#DejaVuSerif-69" transform="translate(174.808594 0)"/>
     <use xlink:href="#DejaVuSerif-74" transform="translate(206.791016 0)"/>
     <use xlink:href="#DejaVuSerif-69" transform="translate(246.976562 0)"/>
     <use xlink:href="#DejaVuSerif-76" transform="translate(278.958984 0)"/>
     <use xlink:href="#DejaVuSerif-65" transform="translate(335.453125 0)"/>
    </g>
   </g>
  </g>
  <g id="axes_2">
   <g id="patch_17">
    <path d="M 345.04625 163.96 
L 565.92 163.96 
L 565.92 33.36 
L 345.04625 33.36 
z
" style="fill: #ffffff"/>
   </g>
   <g id="patch_18">
    <path d="M 349.463725 163.96 
L 384.803525 163.96 
L 384.803525 148.394386 
L 349.463725 148.394386 
z
" clip-path="url(#pa8b10e3d64)" style="fill: #aeccdb"/>
   </g>
   <g id="patch_19">
    <path d="M 393.638475 163.96 
L 428.978275 163.96 
L 428.978275 136.770876 
L 393.638475 136.770876 
z
" clip-path="url(#pa8b10e3d64)" style="fill: #3274a1"/>
   </g>
   <g id="patch_20">
    <path d="M 437.813225 163.96 
L 473.153025 163.96 
L 473.153025 139.202188 
L 437.813225 139.202188 
z
" clip-path="url(#pa8b10e3d64)" style="fill: #b3d495"/>
   </g>
   <g id="patch_21">
    <path d="M 481.987975 163.96 
L 517.327775 163.96 
L 517.327775 155.513321 
L 481.987975 155.513321 
z
" clip-path="url(#pa8b10e3d64)" style="fill: #40923a"/>
   </g>
   <g id="patch_22">
    <path d="M 526.162725 163.96 
L 561.502525 163.96 
L 561.502525 159.956852 
L 526.162725 159.956852 
z
" clip-path="url(#pa8b10e3d64)" style="fill: #efa6a5"/>
   </g>
   <g id="patch_23">
    <path d="M 367.133625 163.96 
L 367.133625 163.96 
L 367.133625 163.96 
L 367.133625 163.96 
z
" clip-path="url(#pa8b10e3d64)" style="fill: #aeccdb"/>
   </g>
   <g id="patch_24">
    <path d="M 367.133625 163.96 
L 367.133625 163.96 
L 367.133625 163.96 
L 367.133625 163.96 
z
" clip-path="url(#pa8b10e3d64)" style="fill: #3274a1"/>
   </g>
   <g id="patch_25">
    <path d="M 367.133625 163.96 
L 367.133625 163.96 
L 367.133625 163.96 
L 367.133625 163.96 
z
" clip-path="url(#pa8b10e3d64)" style="fill: #b3d495"/>
   </g>
   <g id="patch_26">
    <path d="M 367.133625 163.96 
L 367.133625 163.96 
L 367.133625 163.96 
L 367.133625 163.96 
z
" clip-path="url(#pa8b10e3d64)" style="fill: #40923a"/>
   </g>
   <g id="patch_27">
    <path d="M 367.133625 163.96 
L 367.133625 163.96 
L 367.133625 163.96 
L 367.133625 163.96 
z
" clip-path="url(#pa8b10e3d64)" style="fill: #efa6a5"/>
   </g>
   <g id="matplotlib.axis_3">
    <g id="xtick_6">
     <g id="line2d_14">
      <g>
       <use xlink:href="#m35ee814b0c" x="367.133625" y="163.96" style="stroke: #000000; stroke-width: 0.8"/>
      </g>
     </g>
     <g id="text_12">
      <!-- 1 -->
      <g transform="translate(362.679875 181.597812) scale(0.14 -0.14)">
       <use xlink:href="#DejaVuSerif-31"/>
      </g>
     </g>
    </g>
    <g id="xtick_7">
     <g id="line2d_15">
      <g>
       <use xlink:href="#m35ee814b0c" x="411.308375" y="163.96" style="stroke: #000000; stroke-width: 0.8"/>
      </g>
     </g>
     <g id="text_13">
      <!-- 2 -->
      <g transform="translate(406.854625 181.597812) scale(0.14 -0.14)">
       <use xlink:href="#DejaVuSerif-32"/>
      </g>
     </g>
    </g>
    <g id="xtick_8">
     <g id="line2d_16">
      <g>
       <use xlink:href="#m35ee814b0c" x="455.483125" y="163.96" style="stroke: #000000; stroke-width: 0.8"/>
      </g>
     </g>
     <g id="text_14">
      <!-- 3 -->
      <g transform="translate(451.029375 181.597812) scale(0.14 -0.14)">
       <use xlink:href="#DejaVuSerif-33"/>
      </g>
     </g>
    </g>
    <g id="xtick_9">
     <g id="line2d_17">
      <g>
       <use xlink:href="#m35ee814b0c" x="499.657875" y="163.96" style="stroke: #000000; stroke-width: 0.8"/>
      </g>
     </g>
     <g id="text_15">
      <!-- 4 -->
      <g transform="translate(495.204125 181.597812) scale(0.14 -0.14)">
       <use xlink:href="#DejaVuSerif-34"/>
      </g>
     </g>
    </g>
    <g id="xtick_10">
     <g id="line2d_18">
      <g>
       <use xlink:href="#m35ee814b0c" x="543.832625" y="163.96" style="stroke: #000000; stroke-width: 0.8"/>
      </g>
     </g>
     <g id="text_16">
      <!-- 5 -->
      <g transform="translate(539.378875 181.597812) scale(0.14 -0.14)">
       <use xlink:href="#DejaVuSerif-35"/>
      </g>
     </g>
    </g>
    <g id="text_17">
     <!-- stars -->
     <g transform="translate(437.966719 199.147187) scale(0.14 -0.14)">
      <use xlink:href="#DejaVuSerif-73"/>
      <use xlink:href="#DejaVuSerif-74" transform="translate(51.318359 0)"/>
      <use xlink:href="#DejaVuSerif-61" transform="translate(91.503906 0)"/>
      <use xlink:href="#DejaVuSerif-72" transform="translate(151.123047 0)"/>
      <use xlink:href="#DejaVuSerif-73" transform="translate(198.925781 0)"/>
     </g>
    </g>
   </g>
   <g id="matplotlib.axis_4">
    <g id="ytick_4">
     <g id="line2d_19">
      <g>
       <use xlink:href="#m55065a93b3" x="345.04625" y="163.96" style="stroke: #000000; stroke-width: 0.8"/>
      </g>
     </g>
     <g id="text_18">
      <!-- 0.0 -->
      <g transform="translate(315.781875 169.278906) scale(0.14 -0.14)">
       <use xlink:href="#DejaVuSerif-30"/>
       <use xlink:href="#DejaVuSerif-2e" transform="translate(63.623047 0)"/>
       <use xlink:href="#DejaVuSerif-30" transform="translate(95.410156 0)"/>
      </g>
     </g>
    </g>
    <g id="ytick_5">
     <g id="line2d_20">
      <g>
       <use xlink:href="#m55065a93b3" x="345.04625" y="98.66" style="stroke: #000000; stroke-width: 0.8"/>
      </g>
     </g>
     <g id="text_19">
      <!-- 0.5 -->
      <g transform="translate(315.781875 103.978906) scale(0.14 -0.14)">
       <use xlink:href="#DejaVuSerif-30"/>
       <use xlink:href="#DejaVuSerif-2e" transform="translate(63.623047 0)"/>
       <use xlink:href="#DejaVuSerif-35" transform="translate(95.410156 0)"/>
      </g>
     </g>
    </g>
    <g id="ytick_6">
     <g id="line2d_21">
      <g>
       <use xlink:href="#m55065a93b3" x="345.04625" y="33.36" style="stroke: #000000; stroke-width: 0.8"/>
      </g>
     </g>
     <g id="text_20">
      <!-- 1.0 -->
      <g transform="translate(315.781875 38.678906) scale(0.14 -0.14)">
       <use xlink:href="#DejaVuSerif-31"/>
       <use xlink:href="#DejaVuSerif-2e" transform="translate(63.623047 0)"/>
       <use xlink:href="#DejaVuSerif-30" transform="translate(95.410156 0)"/>
      </g>
     </g>
    </g>
    <g id="text_21">
     <!-- neu_prob -->
     <g transform="translate(308.480938 131.842187) rotate(-90) scale(0.14 -0.14)">
      <defs>
       <path id="DejaVuSerif-6e" d="M 263 0 
L 263 331 
L 781 331 
L 781 2988 
L 231 2988 
L 231 3322 
L 1356 3322 
L 1356 2731 
Q 1516 3069 1770 3241 
Q 2025 3413 2363 3413 
Q 2913 3413 3172 3097 
Q 3431 2781 3431 2113 
L 3431 331 
L 3944 331 
L 3944 0 
L 2356 0 
L 2356 331 
L 2853 331 
L 2853 1931 
Q 2853 2541 2703 2767 
Q 2553 2994 2175 2994 
Q 1775 2994 1565 2701 
Q 1356 2409 1356 1850 
L 1356 331 
L 1856 331 
L 1856 0 
L 263 0 
z
" transform="scale(0.015625)"/>
       <path id="DejaVuSerif-75" d="M 2266 3322 
L 3341 3322 
L 3341 331 
L 3884 331 
L 3884 0 
L 2766 0 
L 2766 588 
Q 2606 256 2353 82 
Q 2100 -91 1766 -91 
Q 1213 -91 952 223 
Q 691 538 691 1209 
L 691 2988 
L 172 2988 
L 172 3322 
L 1269 3322 
L 1269 1388 
Q 1269 781 1417 556 
Q 1566 331 1947 331 
Q 2347 331 2556 625 
Q 2766 919 2766 1478 
L 2766 2988 
L 2266 2988 
L 2266 3322 
z
" transform="scale(0.015625)"/>
      </defs>
      <use xlink:href="#DejaVuSerif-6e"/>
      <use xlink:href="#DejaVuSerif-65" transform="translate(64.404297 0)"/>
      <use xlink:href="#DejaVuSerif-75" transform="translate(123.583984 0)"/>
      <use xlink:href="#DejaVuSerif-5f" transform="translate(187.988281 0)"/>
      <use xlink:href="#DejaVuSerif-70" transform="translate(237.988281 0)"/>
      <use xlink:href="#DejaVuSerif-72" transform="translate(302.001953 0)"/>
      <use xlink:href="#DejaVuSerif-6f" transform="translate(349.804688 0)"/>
      <use xlink:href="#DejaVuSerif-62" transform="translate(410.009766 0)"/>
     </g>
    </g>
   </g>
   <g id="line2d_22">
    <path d="M 367.133625 148.644371 
L 367.133625 148.142995 
" clip-path="url(#pa8b10e3d64)" style="fill: none; stroke: #424242; stroke-width: 2.25; stroke-linecap: square"/>
   </g>
   <g id="line2d_23">
    <path d="M 411.308375 137.080996 
L 411.308375 136.467859 
" clip-path="url(#pa8b10e3d64)" style="fill: none; stroke: #424242; stroke-width: 2.25; stroke-linecap: square"/>
   </g>
   <g id="line2d_24">
    <path d="M 455.483125 139.440943 
L 455.483125 138.934805 
" clip-path="url(#pa8b10e3d64)" style="fill: none; stroke: #424242; stroke-width: 2.25; stroke-linecap: square"/>
   </g>
   <g id="line2d_25">
    <path d="M 499.657875 155.626789 
L 499.657875 155.393202 
" clip-path="url(#pa8b10e3d64)" style="fill: none; stroke: #424242; stroke-width: 2.25; stroke-linecap: square"/>
   </g>
   <g id="line2d_26">
    <path d="M 543.832625 160.020352 
L 543.832625 159.892135 
" clip-path="url(#pa8b10e3d64)" style="fill: none; stroke: #424242; stroke-width: 2.25; stroke-linecap: square"/>
   </g>
   <g id="patch_28">
    <path d="M 345.04625 163.96 
L 345.04625 33.36 
" style="fill: none; stroke: #000000; stroke-width: 0.8; stroke-linejoin: miter; stroke-linecap: square"/>
   </g>
   <g id="patch_29">
    <path d="M 565.92 163.96 
L 565.92 33.36 
" style="fill: none; stroke: #000000; stroke-width: 0.8; stroke-linejoin: miter; stroke-linecap: square"/>
   </g>
   <g id="patch_30">
    <path d="M 345.04625 163.96 
L 565.92 163.96 
" style="fill: none; stroke: #000000; stroke-width: 0.8; stroke-linejoin: miter; stroke-linecap: square"/>
   </g>
   <g id="patch_31">
    <path d="M 345.04625 33.36 
L 565.92 33.36 
" style="fill: none; stroke: #000000; stroke-width: 0.8; stroke-linejoin: miter; stroke-linecap: square"/>
   </g>
   <g id="text_22">
    <!-- Neutral -->
    <g transform="translate(422.665375 27.36) scale(0.168 -0.168)">
     <defs>
      <path id="DejaVuSerif-4e" d="M 313 0 
L 313 331 
L 941 331 
L 941 4331 
L 313 4331 
L 313 4666 
L 1509 4666 
L 4306 984 
L 4306 4331 
L 3681 4331 
L 3681 4666 
L 5319 4666 
L 5319 4331 
L 4691 4331 
L 4691 -91 
L 4313 -91 
L 1325 3841 
L 1325 331 
L 1953 331 
L 1953 0 
L 313 0 
z
" transform="scale(0.015625)"/>
      <path id="DejaVuSerif-6c" d="M 1313 331 
L 1856 331 
L 1856 0 
L 184 0 
L 184 331 
L 738 331 
L 738 4531 
L 184 4531 
L 184 4863 
L 1313 4863 
L 1313 331 
z
" transform="scale(0.015625)"/>
     </defs>
     <use xlink:href="#DejaVuSerif-4e"/>
     <use xlink:href="#DejaVuSerif-65" transform="translate(87.5 0)"/>
     <use xlink:href="#DejaVuSerif-75" transform="translate(146.679688 0)"/>
     <use xlink:href="#DejaVuSerif-74" transform="translate(211.083984 0)"/>
     <use xlink:href="#DejaVuSerif-72" transform="translate(251.269531 0)"/>
     <use xlink:href="#DejaVuSerif-61" transform="translate(299.072266 0)"/>
     <use xlink:href="#DejaVuSerif-6c" transform="translate(358.691406 0)"/>
    </g>
   </g>
  </g>
  <g id="axes_3">
   <g id="patch_32">
    <path d="M 628.00625 163.96 
L 848.88 163.96 
L 848.88 33.36 
L 628.00625 33.36 
z
" style="fill: #ffffff"/>
   </g>
   <g id="patch_33">
    <path d="M 632.423725 163.96 
L 667.763525 163.96 
L 667.763525 56.155126 
L 632.423725 56.155126 
z
" clip-path="url(#p95c6fb4b0b)" style="fill: #aeccdb"/>
   </g>
   <g id="patch_34">
    <path d="M 676.598475 163.96 
L 711.938275 163.96 
L 711.938275 86.500416 
L 676.598475 86.500416 
z
" clip-path="url(#p95c6fb4b0b)" style="fill: #3274a1"/>
   </g>
   <g id="patch_35">
    <path d="M 720.773225 163.96 
L 756.113025 163.96 
L 756.113025 134.672978 
L 720.773225 134.672978 
z
" clip-path="url(#p95c6fb4b0b)" style="fill: #b3d495"/>
   </g>
   <g id="patch_36">
    <path d="M 764.947975 163.96 
L 800.287775 163.96 
L 800.287775 159.862504 
L 764.947975 159.862504 
z
" clip-path="url(#p95c6fb4b0b)" style="fill: #40923a"/>
   </g>
   <g id="patch_37">
    <path d="M 809.122725 163.96 
L 844.462525 163.96 
L 844.462525 162.422433 
L 809.122725 162.422433 
z
" clip-path="url(#p95c6fb4b0b)" style="fill: #efa6a5"/>
   </g>
   <g id="patch_38">
    <path d="M 650.093625 163.96 
L 650.093625 163.96 
L 650.093625 163.96 
L 650.093625 163.96 
z
" clip-path="url(#p95c6fb4b0b)" style="fill: #aeccdb"/>
   </g>
   <g id="patch_39">
    <path d="M 650.093625 163.96 
L 650.093625 163.96 
L 650.093625 163.96 
L 650.093625 163.96 
z
" clip-path="url(#p95c6fb4b0b)" style="fill: #3274a1"/>
   </g>
   <g id="patch_40">
    <path d="M 650.093625 163.96 
L 650.093625 163.96 
L 650.093625 163.96 
L 650.093625 163.96 
z
" clip-path="url(#p95c6fb4b0b)" style="fill: #b3d495"/>
   </g>
   <g id="patch_41">
    <path d="M 650.093625 163.96 
L 650.093625 163.96 
L 650.093625 163.96 
L 650.093625 163.96 
z
" clip-path="url(#p95c6fb4b0b)" style="fill: #40923a"/>
   </g>
   <g id="patch_42">
    <path d="M 650.093625 163.96 
L 650.093625 163.96 
L 650.093625 163.96 
L 650.093625 163.96 
z
" clip-path="url(#p95c6fb4b0b)" style="fill: #efa6a5"/>
   </g>
   <g id="matplotlib.axis_5">
    <g id="xtick_11">
     <g id="line2d_27">
      <g>
       <use xlink:href="#m35ee814b0c" x="650.093625" y="163.96" style="stroke: #000000; stroke-width: 0.8"/>
      </g>
     </g>
     <g id="text_23">
      <!-- 1 -->
      <g transform="translate(645.639875 181.597812) scale(0.14 -0.14)">
       <use xlink:href="#DejaVuSerif-31"/>
      </g>
     </g>
    </g>
    <g id="xtick_12">
     <g id="line2d_28">
      <g>
       <use xlink:href="#m35ee814b0c" x="694.268375" y="163.96" style="stroke: #000000; stroke-width: 0.8"/>
      </g>
     </g>
     <g id="text_24">
      <!-- 2 -->
      <g transform="translate(689.814625 181.597812) scale(0.14 -0.14)">
       <use xlink:href="#DejaVuSerif-32"/>
      </g>
     </g>
    </g>
    <g id="xtick_13">
     <g id="line2d_29">
      <g>
       <use xlink:href="#m35ee814b0c" x="738.443125" y="163.96" style="stroke: #000000; stroke-width: 0.8"/>
      </g>
     </g>
     <g id="text_25">
      <!-- 3 -->
      <g transform="translate(733.989375 181.597812) scale(0.14 -0.14)">
       <use xlink:href="#DejaVuSerif-33"/>
      </g>
     </g>
    </g>
    <g id="xtick_14">
     <g id="line2d_30">
      <g>
       <use xlink:href="#m35ee814b0c" x="782.617875" y="163.96" style="stroke: #000000; stroke-width: 0.8"/>
      </g>
     </g>
     <g id="text_26">
      <!-- 4 -->
      <g transform="translate(778.164125 181.597812) scale(0.14 -0.14)">
       <use xlink:href="#DejaVuSerif-34"/>
      </g>
     </g>
    </g>
    <g id="xtick_15">
     <g id="line2d_31">
      <g>
       <use xlink:href="#m35ee814b0c" x="826.792625" y="163.96" style="stroke: #000000; stroke-width: 0.8"/>
      </g>
     </g>
     <g id="text_27">
      <!-- 5 -->
      <g transform="translate(822.338875 181.597812) scale(0.14 -0.14)">
       <use xlink:href="#DejaVuSerif-35"/>
      </g>
     </g>
    </g>
    <g id="text_28">
     <!-- stars -->
     <g transform="translate(720.926719 199.147187) scale(0.14 -0.14)">
      <use xlink:href="#DejaVuSerif-73"/>
      <use xlink:href="#DejaVuSerif-74" transform="translate(51.318359 0)"/>
      <use xlink:href="#DejaVuSerif-61" transform="translate(91.503906 0)"/>
      <use xlink:href="#DejaVuSerif-72" transform="translate(151.123047 0)"/>
      <use xlink:href="#DejaVuSerif-73" transform="translate(198.925781 0)"/>
     </g>
    </g>
   </g>
   <g id="matplotlib.axis_6">
    <g id="ytick_7">
     <g id="line2d_32">
      <g>
       <use xlink:href="#m55065a93b3" x="628.00625" y="163.96" style="stroke: #000000; stroke-width: 0.8"/>
      </g>
     </g>
     <g id="text_29">
      <!-- 0.0 -->
      <g transform="translate(598.741875 169.278906) scale(0.14 -0.14)">
       <use xlink:href="#DejaVuSerif-30"/>
       <use xlink:href="#DejaVuSerif-2e" transform="translate(63.623047 0)"/>
       <use xlink:href="#DejaVuSerif-30" transform="translate(95.410156 0)"/>
      </g>
     </g>
    </g>
    <g id="ytick_8">
     <g id="line2d_33">
      <g>
       <use xlink:href="#m55065a93b3" x="628.00625" y="98.66" style="stroke: #000000; stroke-width: 0.8"/>
      </g>
     </g>
     <g id="text_30">
      <!-- 0.5 -->
      <g transform="translate(598.741875 103.978906) scale(0.14 -0.14)">
       <use xlink:href="#DejaVuSerif-30"/>
       <use xlink:href="#DejaVuSerif-2e" transform="translate(63.623047 0)"/>
       <use xlink:href="#DejaVuSerif-35" transform="translate(95.410156 0)"/>
      </g>
     </g>
    </g>
    <g id="ytick_9">
     <g id="line2d_34">
      <g>
       <use xlink:href="#m55065a93b3" x="628.00625" y="33.36" style="stroke: #000000; stroke-width: 0.8"/>
      </g>
     </g>
     <g id="text_31">
      <!-- 1.0 -->
      <g transform="translate(598.741875 38.678906) scale(0.14 -0.14)">
       <use xlink:href="#DejaVuSerif-31"/>
       <use xlink:href="#DejaVuSerif-2e" transform="translate(63.623047 0)"/>
       <use xlink:href="#DejaVuSerif-30" transform="translate(95.410156 0)"/>
      </g>
     </g>
    </g>
    <g id="text_32">
     <!-- neg_prob -->
     <g transform="translate(591.440937 131.814844) rotate(-90) scale(0.14 -0.14)">
      <defs>
       <path id="DejaVuSerif-67" d="M 3359 2988 
L 3359 72 
Q 3359 -644 2965 -1033 
Q 2572 -1422 1844 -1422 
Q 1516 -1422 1216 -1362 
Q 916 -1303 641 -1184 
L 641 -488 
L 941 -488 
Q 997 -813 1206 -963 
Q 1416 -1113 1806 -1113 
Q 2313 -1113 2548 -827 
Q 2784 -541 2784 72 
L 2784 519 
Q 2616 206 2355 57 
Q 2094 -91 1709 -91 
Q 1097 -91 708 395 
Q 319 881 319 1663 
Q 319 2444 706 2928 
Q 1094 3413 1709 3413 
Q 2094 3413 2355 3264 
Q 2616 3116 2784 2803 
L 2784 3322 
L 3909 3322 
L 3909 2988 
L 3359 2988 
z
M 2784 1825 
Q 2784 2422 2554 2737 
Q 2325 3053 1888 3053 
Q 1444 3053 1217 2703 
Q 991 2353 991 1663 
Q 991 975 1217 622 
Q 1444 269 1888 269 
Q 2325 269 2554 583 
Q 2784 897 2784 1497 
L 2784 1825 
z
" transform="scale(0.015625)"/>
      </defs>
      <use xlink:href="#DejaVuSerif-6e"/>
      <use xlink:href="#DejaVuSerif-65" transform="translate(64.404297 0)"/>
      <use xlink:href="#DejaVuSerif-67" transform="translate(123.583984 0)"/>
      <use xlink:href="#DejaVuSerif-5f" transform="translate(187.597656 0)"/>
      <use xlink:href="#DejaVuSerif-70" transform="translate(237.597656 0)"/>
      <use xlink:href="#DejaVuSerif-72" transform="translate(301.611328 0)"/>
      <use xlink:href="#DejaVuSerif-6f" transform="translate(349.414062 0)"/>
      <use xlink:href="#DejaVuSerif-62" transform="translate(409.619141 0)"/>
     </g>
    </g>
   </g>
   <g id="line2d_35">
    <path d="M 650.093625 56.615905 
L 650.093625 55.762617 
" clip-path="url(#p95c6fb4b0b)" style="fill: none; stroke: #424242; stroke-width: 2.25; stroke-linecap: square"/>
   </g>
   <g id="line2d_36">
    <path d="M 694.268375 87.212192 
L 694.268375 85.803753 
" clip-path="url(#p95c6fb4b0b)" style="fill: none; stroke: #424242; stroke-width: 2.25; stroke-linecap: square"/>
   </g>
   <g id="line2d_37">
    <path d="M 738.443125 135.165516 
L 738.443125 134.171262 
" clip-path="url(#p95c6fb4b0b)" style="fill: none; stroke: #424242; stroke-width: 2.25; stroke-linecap: square"/>
   </g>
   <g id="line2d_38">
    <path d="M 782.617875 159.985479 
L 782.617875 159.739619 
" clip-path="url(#p95c6fb4b0b)" style="fill: none; stroke: #424242; stroke-width: 2.25; stroke-linecap: square"/>
   </g>
   <g id="line2d_39">
    <path d="M 826.792625 162.47572 
L 826.792625 162.370263 
" clip-path="url(#p95c6fb4b0b)" style="fill: none; stroke: #424242; stroke-width: 2.25; stroke-linecap: square"/>
   </g>
   <g id="patch_43">
    <path d="M 628.00625 163.96 
L 628.00625 33.36 
" style="fill: none; stroke: #000000; stroke-width: 0.8; stroke-linejoin: miter; stroke-linecap: square"/>
   </g>
   <g id="patch_44">
    <path d="M 848.88 163.96 
L 848.88 33.36 
" style="fill: none; stroke: #000000; stroke-width: 0.8; stroke-linejoin: miter; stroke-linecap: square"/>
   </g>
   <g id="patch_45">
    <path d="M 628.00625 163.96 
L 848.88 163.96 
" style="fill: none; stroke: #000000; stroke-width: 0.8; stroke-linejoin: miter; stroke-linecap: square"/>
   </g>
   <g id="patch_46">
    <path d="M 628.00625 33.36 
L 848.88 33.36 
" style="fill: none; stroke: #000000; stroke-width: 0.8; stroke-linejoin: miter; stroke-linecap: square"/>
   </g>
   <g id="text_33">
    <!-- Negative -->
    <g transform="translate(699.955375 27.36) scale(0.168 -0.168)">
     <use xlink:href="#DejaVuSerif-4e"/>
     <use xlink:href="#DejaVuSerif-65" transform="translate(87.5 0)"/>
     <use xlink:href="#DejaVuSerif-67" transform="translate(146.679688 0)"/>
     <use xlink:href="#DejaVuSerif-61" transform="translate(210.693359 0)"/>
     <use xlink:href="#DejaVuSerif-74" transform="translate(270.3125 0)"/>
     <use xlink:href="#DejaVuSerif-69" transform="translate(310.498047 0)"/>
     <use xlink:href="#DejaVuSerif-76" transform="translate(342.480469 0)"/>
     <use xlink:href="#DejaVuSerif-65" transform="translate(398.974609 0)"/>
    </g>
   </g>
  </g>
 </g>
 <defs>
  <clipPath id="peca955c420">
   <rect x="62.08625" y="33.36" width="220.87375" height="130.6"/>
  </clipPath>
  <clipPath id="pa8b10e3d64">
   <rect x="345.04625" y="33.36" width="220.87375" height="130.6"/>
  </clipPath>
  <clipPath id="p95c6fb4b0b">
   <rect x="628.00625" y="33.36" width="220.87375" height="130.6"/>
  </clipPath>
 </defs>
</svg>
